<?xml version="1.0" encoding="UTF-8" standalone="no"?>
<!-- Created with Inkscape (http://www.inkscape.org/) -->

<svg
   width="240mm"
   height="120mm"
   viewBox="0 0 240 120"
   version="1.1"
   id="svg8"
   inkscape:version="1.4 (e7c3feb100, 2024-10-09)"
   sodipodi:docname="c过程的体积功.svg"
   xmlns:inkscape="http://www.inkscape.org/namespaces/inkscape"
   xmlns:sodipodi="http://sodipodi.sourceforge.net/DTD/sodipodi-0.dtd"
   xmlns="http://www.w3.org/2000/svg"
   xmlns:svg="http://www.w3.org/2000/svg"
   xmlns:rdf="http://www.w3.org/1999/02/22-rdf-syntax-ns#"
   xmlns:cc="http://creativecommons.org/ns#"
   xmlns:dc="http://purl.org/dc/elements/1.1/">
  <defs
     id="defs2">
    <marker
       style="overflow:visible"
       id="marker5"
       refX="0"
       refY="0"
       orient="auto-start-reverse"
       inkscape:stockid="Dart arrow"
       markerWidth="1"
       markerHeight="1"
       viewBox="0 0 1 1"
       inkscape:isstock="true"
       inkscape:collect="always"
       preserveAspectRatio="xMidYMid">
      <path
         style="fill:context-stroke;fill-rule:evenodd;stroke:none"
         d="M 0,0 5,-5 -12.5,0 5,5 Z"
         transform="scale(-0.5)"
         id="path5" />
    </marker>
    <marker
       style="overflow:visible"
       id="DartArrow"
       refX="0"
       refY="0"
       orient="auto-start-reverse"
       inkscape:stockid="Dart arrow"
       markerWidth="1"
       markerHeight="1"
       viewBox="0 0 1 1"
       inkscape:isstock="true"
       inkscape:collect="always"
       preserveAspectRatio="xMidYMid">
      <path
         style="fill:context-stroke;fill-rule:evenodd;stroke:none"
         d="M 0,0 5,-5 -12.5,0 5,5 Z"
         transform="scale(-0.5)"
         id="path6" />
    </marker>
    <marker
       style="overflow:visible"
       id="Dot"
       refX="0"
       refY="0"
       orient="auto"
       inkscape:stockid="Dot"
       markerWidth="0.69999999"
       markerHeight="0.69930071"
       viewBox="0 0 1 1"
       inkscape:isstock="true"
       inkscape:collect="always"
       preserveAspectRatio="xMidYMid">
      <path
         transform="scale(0.5)"
         style="fill:context-stroke;fill-rule:evenodd;stroke:none"
         d="M 5,0 C 5,2.76 2.76,5 0,5 -2.76,5 -5,2.76 -5,0 c 0,-2.76 2.3,-5 5,-5 2.76,0 5,2.24 5,5 z"
         sodipodi:nodetypes="sssss"
         id="path17" />
    </marker>
    <marker
       style="overflow:visible"
       id="marker8"
       refX="0"
       refY="0"
       orient="auto"
       inkscape:stockid="Dot"
       markerWidth="0.69999999"
       markerHeight="0.69999999"
       viewBox="0 0 1 1"
       inkscape:isstock="true"
       inkscape:collect="always"
       preserveAspectRatio="xMidYMid">
      <path
         transform="scale(0.5)"
         style="fill:context-stroke;fill-rule:evenodd;stroke:none"
         d="M 5,0 C 5,2.76 2.76,5 0,5 -2.76,5 -5,2.76 -5,0 c 0,-2.76 2.3,-5 5,-5 2.76,0 5,2.24 5,5 z"
         sodipodi:nodetypes="sssss"
         id="path8" />
    </marker>
  </defs>
  <sodipodi:namedview
     id="base"
     pagecolor="#ffffff"
     bordercolor="#666666"
     borderopacity="1.0"
     inkscape:pageopacity="0.0"
     inkscape:pageshadow="2"
     inkscape:zoom="0.99437388"
     inkscape:cx="705.97188"
     inkscape:cy="183.02975"
     inkscape:document-units="mm"
     inkscape:current-layer="layer1"
     showgrid="false"
     showborder="true"
     width="200mm"
     showguides="true"
     inkscape:guide-bbox="true"
     inkscape:window-width="2480"
     inkscape:window-height="1477"
     inkscape:window-x="0"
     inkscape:window-y="0"
     inkscape:window-maximized="1"
     inkscape:showpageshadow="2"
     inkscape:pagecheckerboard="0"
     inkscape:deskcolor="#d1d1d1">
    <inkscape:grid
       type="xygrid"
       id="grid815"
       units="mm"
       spacingx="10"
       spacingy="10"
       empspacing="4"
       dotted="false"
       originx="0"
       originy="0" />
  </sodipodi:namedview>
  <metadata
     id="metadata5">
    <rdf:RDF>
      <cc:Work
         rdf:about="">
        <dc:format>image/svg+xml</dc:format>
        <dc:type
           rdf:resource="http://purl.org/dc/dcmitype/StillImage" />
        <dc:title />
      </cc:Work>
    </rdf:RDF>
  </metadata>
  <g
     inkscape:label="Layer 1"
     inkscape:groupmode="layer"
     id="layer1"
     transform="translate(0,-177)">
    <path
       style="font-variation-settings:normal;vector-effect:none;fill:none;fill-opacity:1;stroke:#000000;stroke-width:0.938181;stroke-linecap:butt;stroke-linejoin:miter;stroke-miterlimit:4;stroke-dasharray:none;stroke-dashoffset:0;stroke-opacity:1;-inkscape-stroke:none;marker-end:url(#DartArrow);stop-color:#000000"
       d="M 42.214843,268.26523 H 162.59325"
       id="path2"
       sodipodi:nodetypes="cc" />
    <path
       style="font-variation-settings:normal;vector-effect:none;fill:none;fill-opacity:1;stroke:#000000;stroke-width:1;stroke-linecap:butt;stroke-linejoin:miter;stroke-miterlimit:4;stroke-dasharray:none;stroke-dashoffset:0;stroke-opacity:1;-inkscape-stroke:none;marker-end:url(#DartArrow);stop-color:#000000"
       d="M 57.913583,280.23885 V 203.60771"
       id="path3"
       sodipodi:nodetypes="cc" />
    <text
       xml:space="preserve"
       style="font-size:6.35px;line-height:normal;font-family:'JetBrainsMono Nerd Font Mono';-inkscape-font-specification:'JetBrainsMono Nerd Font Mono';text-decoration-color:#000000;fill:#000000;stroke-width:1.006;-inkscape-stroke:none;stop-color:#000000"
       x="172.32812"
       y="272.7886"
       id="text4"><tspan
         sodipodi:role="line"
         id="tspan4"
         style="stroke-width:1.006"
         x="172.32812"
         y="272.7886">$V$</tspan></text>
    <text
       xml:space="preserve"
       style="font-size:6.35px;line-height:normal;font-family:'JetBrainsMono Nerd Font Mono';-inkscape-font-specification:'JetBrainsMono Nerd Font Mono';text-decoration-color:#000000;fill:#000000;stroke-width:1.006;-inkscape-stroke:none;stop-color:#000000"
       x="135.34296"
       y="277.84412"
       id="text5"><tspan
         sodipodi:role="line"
         id="tspan5"
         style="stroke-width:1.006"
         x="135.34296"
         y="277.84412">$3V_0$</tspan></text>
    <text
       xml:space="preserve"
       style="font-size:6.35px;line-height:normal;font-family:'JetBrainsMono Nerd Font Mono';-inkscape-font-specification:'JetBrainsMono Nerd Font Mono';text-decoration-color:#000000;fill:#000000;stroke-width:1.006;-inkscape-stroke:none;stop-color:#000000"
       x="75.474884"
       y="278.1102"
       id="text6"><tspan
         sodipodi:role="line"
         id="tspan6"
         style="stroke-width:1.006"
         x="75.474884"
         y="278.1102">$V_0$</tspan></text>
    <path
       style="font-variation-settings:normal;vector-effect:none;fill:none;fill-opacity:1;stroke:#000000;stroke-width:1;stroke-linecap:butt;stroke-linejoin:miter;stroke-miterlimit:4;stroke-dasharray:none;stroke-dashoffset:0;stroke-opacity:1;-inkscape-stroke:none;marker-start:url(#Dot);marker-end:url(#marker8);stop-color:#000000"
       d="m 78.667849,202.01123 c 0,20.75426 45.233651,52.41782 63.859271,52.41782"
       id="path7"
       sodipodi:nodetypes="cc" />
    <path
       style="font-variation-settings:normal;vector-effect:none;fill:none;fill-opacity:1;stroke:#000000;stroke-width:1;stroke-linecap:butt;stroke-linejoin:miter;stroke-miterlimit:4;stroke-dasharray:3,3;stroke-dashoffset:0;stroke-opacity:1;-inkscape-stroke:none;stop-color:#000000"
       d="M 142.52712,268.26523 V 253.8969"
       id="path9"
       sodipodi:nodetypes="cc" />
    <path
       style="font-variation-settings:normal;vector-effect:none;fill:none;fill-opacity:1;stroke:#000000;stroke-width:1;stroke-linecap:butt;stroke-linejoin:miter;stroke-miterlimit:4;stroke-dasharray:3,3;stroke-dashoffset:0;stroke-opacity:1;-inkscape-stroke:none;stop-color:#000000"
       d="m 78.667849,268.26523 v -66.254"
       id="path9-6"
       sodipodi:nodetypes="cc" />
    <path
       style="font-variation-settings:normal;vector-effect:none;fill:none;fill-opacity:1;stroke:#000000;stroke-width:1;stroke-linecap:butt;stroke-linejoin:miter;stroke-miterlimit:4;stroke-dasharray:3, 3;stroke-dashoffset:0;stroke-opacity:1;-inkscape-stroke:none;stop-color:#000000"
       d="M 57.913583,202.01123 H 78.667849"
       id="path9-7"
       sodipodi:nodetypes="cc" />
    <path
       style="font-variation-settings:normal;vector-effect:none;fill:none;fill-opacity:1;stroke:#000000;stroke-width:1;stroke-linecap:butt;stroke-linejoin:miter;stroke-miterlimit:4;stroke-dasharray:3, 3;stroke-dashoffset:0;stroke-opacity:1;-inkscape-stroke:none;stop-color:#000000"
       d="M 57.913583,254.42905 H 78.667849 142.52712"
       id="path9-6-5"
       sodipodi:nodetypes="ccc" />
    <text
       xml:space="preserve"
       style="font-size:6.35px;line-height:normal;font-family:'JetBrainsMono Nerd Font Mono';-inkscape-font-specification:'JetBrainsMono Nerd Font Mono';text-decoration-color:#000000;fill:#000000;stroke-width:1.006;-inkscape-stroke:none;stop-color:#000000"
       x="58.977898"
       y="194.56099"
       id="text9"><tspan
         sodipodi:role="line"
         id="tspan9"
         style="stroke-width:1.006"
         x="58.977898"
         y="194.56099">$p$</tspan></text>
    <text
       xml:space="preserve"
       style="font-size:6.35px;line-height:normal;font-family:'JetBrainsMono Nerd Font Mono';-inkscape-font-specification:'JetBrainsMono Nerd Font Mono';text-decoration-color:#000000;fill:#000000;stroke-width:1.006;-inkscape-stroke:none;stop-color:#000000"
       x="32.103786"
       y="205.47028"
       id="text10"><tspan
         sodipodi:role="line"
         style="stroke-width:1.006"
         x="32.103786"
         y="205.47028"
         id="tspan11">$3p_0$</tspan></text>
    <text
       xml:space="preserve"
       style="font-size:6.35px;line-height:normal;font-family:'JetBrainsMono Nerd Font Mono';-inkscape-font-specification:'JetBrainsMono Nerd Font Mono';text-decoration-color:#000000;fill:#000000;stroke-width:1.006;-inkscape-stroke:none;stop-color:#000000"
       x="33.700268"
       y="257.88809"
       id="text12"><tspan
         sodipodi:role="line"
         id="tspan12"
         style="stroke-width:1.006"
         x="33.700268"
         y="257.88809">$p_0$</tspan></text>
    <path
       style="font-variation-settings:normal;opacity:1;vector-effect:none;fill:#85ffff;fill-opacity:1;stroke:none;stroke-width:3.82242;stroke-linecap:butt;stroke-linejoin:miter;stroke-miterlimit:3.9;stroke-dasharray:none;stroke-dashoffset:0;stroke-opacity:1;-inkscape-stroke:none;stop-color:#000000;stop-opacity:1"
       d="m 300.22502,232.05557 0.0361,-110.37096 3.30678,7.03961 c 26.82068,57.09706 121.0292,132.86607 197.29527,158.67849 10.13784,3.43118 12.5223,4.60161 12.5236,6.14737 0.001,1.77509 0.6119,1.86621 8.68579,1.29642 l 8.6842,-0.61286 2.88087,3.08398 2.88087,3.08399 v 21.01246 21.01246 H 418.35371 300.1889 Z m 21.0827,60.59089 c 0,-2.4024 -0.26818,-2.51414 -6.03395,-2.51414 -5.76577,0 -6.03395,0.11174 -6.03395,2.51414 0,2.40241 0.26818,2.51415 6.03395,2.51415 5.76577,0 6.03395,-0.11174 6.03395,-2.51415 z m 23.13013,0 c 0,-2.42389 -0.23465,-2.51414 -6.53678,-2.51414 -6.30212,0 -6.53677,0.0903 -6.53677,2.51414 0,2.4239 0.23465,2.51415 6.53677,2.51415 6.30213,0 6.53678,-0.0903 6.53678,-2.51415 z m 22.12447,0 c 0,-2.4024 -0.26817,-2.51414 -6.03394,-2.51414 -5.76578,0 -6.03395,0.11174 -6.03395,2.51414 0,2.40241 0.26817,2.51415 6.03395,2.51415 5.76577,0 6.03394,-0.11174 6.03394,-2.51415 z m 23.13014,0 c 0,-2.4024 -0.26818,-2.51414 -6.03395,-2.51414 -5.76577,0 -6.03395,0.11174 -6.03395,2.51414 0,2.40241 0.26818,2.51415 6.03395,2.51415 5.76577,0 6.03395,-0.11174 6.03395,-2.51415 z m 22.12447,0 c 0,-2.4024 -0.26818,-2.51414 -6.03395,-2.51414 -5.76577,0 -6.03394,0.11174 -6.03394,2.51414 0,2.40241 0.26817,2.51415 6.03394,2.51415 5.76577,0 6.03395,-0.11174 6.03395,-2.51415 z m 23.13013,0 c 0,-2.4024 -0.26817,-2.51414 -6.03394,-2.51414 -5.76577,0 -6.03395,0.11174 -6.03395,2.51414 0,2.40241 0.26818,2.51415 6.03395,2.51415 5.76577,0 6.03394,-0.11174 6.03394,-2.51415 z m 22.12448,0 c 0,-2.4024 -0.26818,-2.51414 -6.03395,-2.51414 -5.76577,0 -6.03395,0.11174 -6.03395,2.51414 0,2.40241 0.26818,2.51415 6.03395,2.51415 5.76577,0 6.03395,-0.11174 6.03395,-2.51415 z m 23.13013,0 c 0,-2.4024 -0.26818,-2.51414 -6.03395,-2.51414 -5.76576,0 -6.03394,0.11174 -6.03394,2.51414 0,2.40241 0.26818,2.51415 6.03394,2.51415 5.76577,0 6.03395,-0.11174 6.03395,-2.51415 z m 23.13014,0 c 0,-2.42389 -0.23466,-2.51414 -6.53678,-2.51414 -6.30213,0 -6.53678,0.0903 -6.53678,2.51414 0,2.4239 0.23465,2.51415 6.53678,2.51415 6.30212,0 6.53678,-0.0903 6.53678,-2.51415 z"
       id="path1"
       transform="matrix(0.26458333,0,0,0.26458333,0,177)" />
    <text
       xml:space="preserve"
       style="font-size:6.35px;line-height:normal;font-family:'JetBrainsMono Nerd Font Mono';-inkscape-font-specification:'JetBrainsMono Nerd Font Mono';text-decoration-color:#000000;fill:#000000;stroke-width:1.006;-inkscape-stroke:none;stop-color:#000000"
       x="113.35022"
       y="236.86809"
       id="text1"><tspan
         sodipodi:role="line"
         id="tspan1"
         style="stroke-width:1.006"
         x="113.35022"
         y="236.86809">C</tspan></text>
    <path
       style="font-variation-settings:normal;opacity:1;vector-effect:none;fill:none;fill-opacity:1;stroke:#000000;stroke-width:1;stroke-linecap:butt;stroke-linejoin:miter;stroke-miterlimit:4;stroke-dasharray:none;stroke-dashoffset:0;stroke-opacity:1;-inkscape-stroke:none;stop-color:#000000;stop-opacity:1;marker-end:url(#marker5)"
       d="m 118.13967,257.35626 c 35.1226,-55.34471 64.39144,-35.38869 64.39144,-35.38869"
       id="path4" />
    <text
       xml:space="preserve"
       style="font-size:6.35px;line-height:normal;font-family:'JetBrainsMono Nerd Font Mono';-inkscape-font-specification:'JetBrainsMono Nerd Font Mono';text-decoration-color:#000000;fill:#000000;stroke-width:1.006;-inkscape-stroke:none;stop-color:#000000"
       x="173.21829"
       y="236.06982"
       id="text7"><tspan
         sodipodi:role="line"
         id="tspan7"
         style="stroke-width:1.006"
         x="173.21829"
         y="236.06982">$\displaystyle{W_C = \int_{V_0}^{3V_0}\frac{1}{p}\mathrm{d}p}$</tspan></text>
    <text
       xml:space="preserve"
       style="font-size:6.35px;line-height:normal;font-family:'JetBrainsMono Nerd Font Mono';-inkscape-font-specification:'JetBrainsMono Nerd Font Mono';text-decoration-color:#000000;fill:#000000;stroke-width:1.006;-inkscape-stroke:none;stop-color:#000000"
       x="76.897217"
       y="194.82738"
       id="text2"><tspan
         sodipodi:role="line"
         id="tspan2"
         style="stroke-width:1.006"
         x="76.897217"
         y="194.82738">start</tspan></text>
    <text
       xml:space="preserve"
       style="font-size:6.35px;line-height:normal;font-family:'JetBrainsMono Nerd Font Mono';-inkscape-font-specification:'JetBrainsMono Nerd Font Mono';text-decoration-color:#000000;fill:#000000;stroke-width:1.006;-inkscape-stroke:none;stop-color:#000000"
       x="144.48161"
       y="250.43817"
       id="text3"><tspan
         sodipodi:role="line"
         id="tspan3"
         style="stroke-width:1.006"
         x="144.48161"
         y="250.43817">end</tspan></text>
  </g>
</svg>
