<?xml version="1.0" encoding="UTF-8" standalone="no"?>
<!-- Created with Inkscape (http://www.inkscape.org/) -->

<svg
   width="240mm"
   height="120mm"
   viewBox="0 0 240 120"
   version="1.1"
   id="svg8"
   inkscape:version="1.4 (e7c3feb100, 2024-10-09)"
   sodipodi:docname="卡诺循环微积分.svg"
   xmlns:inkscape="http://www.inkscape.org/namespaces/inkscape"
   xmlns:sodipodi="http://sodipodi.sourceforge.net/DTD/sodipodi-0.dtd"
   xmlns="http://www.w3.org/2000/svg"
   xmlns:svg="http://www.w3.org/2000/svg"
   xmlns:rdf="http://www.w3.org/1999/02/22-rdf-syntax-ns#"
   xmlns:cc="http://creativecommons.org/ns#"
   xmlns:dc="http://purl.org/dc/elements/1.1/">
  <defs
     id="defs2">
    <marker
       style="overflow:visible"
       id="DartArrow"
       refX="0"
       refY="0"
       orient="auto-start-reverse"
       inkscape:stockid="Dart arrow"
       markerWidth="1"
       markerHeight="1"
       viewBox="0 0 1 1"
       inkscape:isstock="true"
       inkscape:collect="always"
       preserveAspectRatio="xMidYMid">
      <path
         style="fill:context-stroke;fill-rule:evenodd;stroke:none"
         d="M 0,0 5,-5 -12.5,0 5,5 Z"
         transform="scale(-0.5)"
         id="path6" />
    </marker>
  </defs>
  <sodipodi:namedview
     id="base"
     pagecolor="#ffffff"
     bordercolor="#666666"
     borderopacity="1.0"
     inkscape:pageopacity="0.0"
     inkscape:pageshadow="2"
     inkscape:zoom="1"
     inkscape:cx="82.5"
     inkscape:cy="53"
     inkscape:document-units="mm"
     inkscape:current-layer="layer1"
     showgrid="false"
     showborder="true"
     width="200mm"
     showguides="true"
     inkscape:guide-bbox="true"
     inkscape:window-width="2480"
     inkscape:window-height="1477"
     inkscape:window-x="0"
     inkscape:window-y="0"
     inkscape:window-maximized="1"
     inkscape:showpageshadow="2"
     inkscape:pagecheckerboard="0"
     inkscape:deskcolor="#d1d1d1">
    <inkscape:grid
       type="xygrid"
       id="grid815"
       units="mm"
       spacingx="10"
       spacingy="10"
       empspacing="4"
       dotted="false"
       originx="0"
       originy="0" />
  </sodipodi:namedview>
  <metadata
     id="metadata5">
    <rdf:RDF>
      <cc:Work
         rdf:about="">
        <dc:format>image/svg+xml</dc:format>
        <dc:type
           rdf:resource="http://purl.org/dc/dcmitype/StillImage" />
        <dc:title />
      </cc:Work>
    </rdf:RDF>
  </metadata>
  <g
     inkscape:label="Layer 1"
     inkscape:groupmode="layer"
     id="layer1"
     transform="translate(0,-177)">
    <path
       style="font-variation-settings:normal;opacity:1;vector-effect:none;fill:none;fill-opacity:1;stroke:#000000;stroke-width:1;stroke-linecap:butt;stroke-linejoin:miter;stroke-miterlimit:4;stroke-dasharray:none;stroke-dashoffset:0;stroke-opacity:1;-inkscape-stroke:none;marker-end:url(#DartArrow);stop-color:#000000;stop-opacity:1"
       d="m 30.067078,284.72661 0,-92.82611"
       id="path1"
       sodipodi:nodetypes="cc" />
    <path
       style="font-variation-settings:normal;opacity:1;vector-effect:none;fill:none;fill-opacity:1;stroke:#000000;stroke-width:1;stroke-linecap:butt;stroke-linejoin:miter;stroke-miterlimit:4;stroke-dasharray:none;stroke-dashoffset:0;stroke-opacity:1;-inkscape-stroke:none;marker-end:url(#DartArrow);stop-color:#000000;stop-opacity:1"
       d="m 14.150161,275.18364 195.521139,0"
       id="path2"
       sodipodi:nodetypes="cc" />
    <ellipse
       style="fill:none;stroke:#13fdff;stroke-width:1;stroke-miterlimit:3.9"
       id="path4"
       transform="rotate(-14.871731)"
       ry="31.220833"
       rx="79.963852"
       cy="256.4212"
       cx="55.369774" />
    <text
       xml:space="preserve"
       style="font-size:6.35px;line-height:normal;font-family:'JetBrainsMono Nerd Font Mono';-inkscape-font-specification:'JetBrainsMono Nerd Font Mono';text-decoration-color:#000000;fill:#000000;stroke-width:1.006;-inkscape-stroke:none;stop-color:#000000"
       x="35.71875"
       y="192.08125"
       id="text4"><tspan
         sodipodi:role="line"
         id="tspan4"
         style="stroke-width:1.006"
         x="35.71875"
         y="192.08125">$V$</tspan></text>
    <text
       xml:space="preserve"
       style="font-size:6.35px;line-height:normal;font-family:'JetBrainsMono Nerd Font Mono';-inkscape-font-specification:'JetBrainsMono Nerd Font Mono';text-decoration-color:#000000;fill:#000000;stroke-width:1.006;-inkscape-stroke:none;stop-color:#000000"
       x="207.69791"
       y="287.06665"
       id="text5"><tspan
         sodipodi:role="line"
         id="tspan5"
         style="stroke-width:1.006"
         x="207.69791"
         y="287.06665">$p$</tspan></text>
    <text
       xml:space="preserve"
       style="font-size:6.35px;line-height:normal;font-family:'JetBrainsMono Nerd Font Mono';-inkscape-font-specification:'JetBrainsMono Nerd Font Mono';text-decoration-color:#000000;fill:#000000;stroke-width:1.006;-inkscape-stroke:none;stop-color:#000000"
       x="13.229166"
       y="284.94998"
       id="text6"><tspan
         sodipodi:role="line"
         id="tspan6"
         style="stroke-width:1.006"
         x="13.229166"
         y="284.94998">$O$</tspan></text>
    <path
       style="font-variation-settings:normal;opacity:1;vector-effect:none;fill:none;fill-opacity:1;stroke:#000000;stroke-width:1;stroke-linecap:butt;stroke-linejoin:miter;stroke-miterlimit:4;stroke-dasharray:none;stroke-dashoffset:0;stroke-opacity:1;-inkscape-stroke:none;stop-color:#000000;stop-opacity:1"
       d="m 129.91042,191.81667 c 3.70417,13.22917 8.73124,15.875 8.73124,15.875 0,0 -14.2875,-3.43958 -23.28333,-12.7 l 9.78959,14.55208 c 0,0 -16.93334,-1.5875 -27.252087,-9.26042 l 12.964587,16.66876 c 0,0 -19.314583,-0.26459 -30.956253,-9.78959 l 16.404167,17.4625 c 0,0 -18.785417,-1.85208 -30.162501,-8.99583 L 77.7875,232.82709 c 0,0 -14.816667,-1.05834 -25.929167,-9.78959 l 12.964583,20.10833 c 0,0 -11.906249,-1.05833 -23.018749,-8.99583 L 52.3875,258.75625 c 0,0 13.229166,12.43542 24.870833,14.2875 L 72.495834,261.1375 c 0,0 11.377083,8.99583 27.781246,12.43541 l -6.879163,-15.34582 c 0,0 8.731253,10.31874 25.664583,12.96458 l -10.05417,-16.13958 c 0,0 15.87501,12.17083 27.78125,12.43541 L 125.4125,251.34791 c 0,0 13.49375,8.73126 26.9875,7.93751 l -8.99584,-13.49376 c 0,0 14.28751,10.05418 28.57501,7.9375 l -15.08125,-15.61041 c 0,0 12.96458,7.9375 30.42708,8.20208 L 171.97917,230.975 c 0,0 10.31874,7.9375 26.45833,6.61458 l -18.52084,-16.40417 c 0,0 12.96459,11.37708 24.60626,8.46667 -15.875,-13.49375 -17.19792,-22.225 -17.19792,-22.225 l -24.07708,-20.10833 9.26042,16.66874 c 0,0 -19.57917,-8.99582 -26.72292,-16.13957 0,0 2.11666,9.78959 8.99583,16.93334 z"
       id="path3"
       sodipodi:nodetypes="ccccccccccccccccccccccccccccccccccccc" />
  </g>
</svg>
